<svg width="139" height="20" xmlns="http://www.w3.org/2000/svg">
 <!-- Created with Method Draw - http://github.com/duopixel/Method-Draw/ -->

 <g>
  <title>Layer 1</title>
  <defs>
   <linearGradient y2="100%" y1="0%" x2="17.503%" x1="72.195%" id="svg_4">
    <stop stop-color="#33D35E" offset="0%"/>
    <stop stop-color="#2AB6D9" offset="100%"/>
   </linearGradient>
  </defs>
  <path stroke="null" id="svg_7" d="m39.50122,16.31768c2.78134,0 5.02435,-1.56781 5.80453,-4.07514l-3.80045,0c-0.36668,0.64278 -1.11175,1.03038 -2.00408,1.03038c-1.20635,0 -2.01384,-0.65148 -2.26252,-1.91191l8.23089,0c0.04974,-0.34024 0.07899,-0.67081 0.07899,-1.00235c0,-3.22357 -2.47414,-5.7512 -6.04736,-5.7512c-3.4796,0 -6.02201,2.47833 -6.02201,5.84689c0,3.35696 2.56289,5.86332 6.02201,5.86332zm2.28592,-7.05319l-4.48213,0c0.30915,-1.09128 1.0825,-1.69056 2.1962,-1.69056c1.15174,0 1.95045,0.59252 2.28592,1.69153l0,-0.00097zm10.6748,7.05223c1.2873,0 2.43806,-0.4195 3.34502,-1.14831l0.32768,0.77714l2.952,0l0,-10.98914l-2.84668,0l-0.39009,0.8506c-0.91671,-0.74911 -2.0821,-1.18117 -3.38793,-1.18117c-3.38988,0 -5.81331,2.4213 -5.81331,5.82466c0,3.41496 2.42343,5.86719 5.81331,5.86719l0,-0.00097zm0.51102,-3.35116c-1.43065,0 -2.48194,-1.07098 -2.48194,-2.50636c0,-1.42572 1.04251,-2.4967 2.48194,-2.4967c1.42968,0 2.48097,1.07098 2.48097,2.4967c0,1.43538 -1.05129,2.50636 -2.48097,2.50636zm12.79786,3.35116c2.94518,0 4.9005,-1.50208 4.9005,-3.79869c0,-2.78667 -2.32786,-3.14721 -4.07936,-3.45555c-1.05324,-0.18655 -1.90169,-0.33251 -1.90169,-0.95692c0,-0.50939 0.41154,-0.81 1.02398,-0.81c0.69241,0 1.16734,0.32574 1.16734,1.02748l3.57615,0c-0.04291,-2.22605 -1.87243,-3.7146 -4.69668,-3.7146c-2.83985,0 -4.73374,1.42088 -4.73374,3.62471c0,2.66488 2.2791,3.17911 3.99842,3.45459c1.06494,0.17495 1.90364,0.3557 1.90364,0.98979c0,0.56739 -0.52955,0.8506 -1.08835,0.8506c-0.72362,0 -1.2873,-0.3702 -1.2873,-1.17344l-3.67659,0c0.03511,2.38071 1.87145,3.96301 4.89367,3.96301l0,-0.00097zm7.89931,3.7291c2.86326,0 4.23637,-1.215 5.73139,-4.57776l4.64597,-10.50005l-4.10179,0l-2.19328,6.05374l-2.35224,-6.05374l-4.14958,0l4.5816,10.08151c-0.51687,1.36676 -0.95864,1.74372 -2.41855,1.74372l-1.05129,0l0,3.25257l1.30777,0zm18.04554,-3.7291c3.41328,0 5.82501,-2.43097 5.82501,-5.84593s-2.41075,-5.84593 -5.82501,-5.84593a5.19989,5.15385 0 0 0 -2.75501,0.75781l0,-4.38251l-3.77412,0l0,14.95698l2.82522,0l0.36083,-0.8158c0.90013,0.74524 2.04992,1.17537 3.34307,1.17537zm-0.51004,-3.35116c-1.43065,0 -2.48194,-1.07098 -2.48194,-2.4938c0,-1.43635 1.05129,-2.50733 2.48194,-2.50733c1.42968,0 2.48097,1.07098 2.48097,2.50636c0,1.42378 -1.06007,2.4938 -2.48097,2.4938l0,0.00097zm13.26109,3.35116c1.2873,0 2.43806,-0.4195 3.34502,-1.14831l0.32768,0.77714l2.952,0l0,-10.98914l-2.8457,0l-0.39106,0.8506c-0.91574,-0.74911 -2.0821,-1.18117 -3.38793,-1.18117c-3.38988,0 -5.81233,2.4213 -5.81233,5.82466c0,3.41496 2.42246,5.86719 5.81233,5.86719l0,-0.00097zm0.51102,-3.35116c-1.43065,0 -2.48194,-1.07098 -2.48194,-2.50636c0,-1.42572 1.04349,-2.4967 2.48194,-2.4967c1.43065,0 2.48194,1.07098 2.48194,2.4967c0,1.43538 -1.05129,2.50636 -2.48194,2.50636zm12.33951,2.99159l0,-5.86816c0,-1.39865 0.68461,-2.22315 1.87536,-2.22315c0.96157,0 1.44626,0.63505 1.44626,1.91384l0,6.1765l3.818,0l0,-6.69846c0,-2.80021 -1.69006,-4.61353 -4.26465,-4.61353c-1.43358,0 -2.66529,0.54612 -3.4913,1.45761l-0.5237,-1.13284l-2.67894,0l0,10.98914l3.81898,0l0,-0.00097zm13.40738,0l0,-4.64736l2.77744,4.64736l4.50163,0l-3.80532,-5.7512l3.45522,-5.23794l-4.28806,0l-2.64091,4.30518l0,-8.27303l-3.81898,0l0,14.95698l3.81898,0z" fill-rule="nonzero" fill="#ffffff"/>
  <g transform="matrix(0.9752236816627623,0,0,0.9665881296875664,-52148.951468856954,-8400.841433101867) " stroke="null" id="svg_8" fill="url(#svg_4)">
   <path stroke="null" id="svg_9" d="m53487.38904,8692.26647l-10.802,19.704l5.986,0l10.803,-19.704l-5.987,0z"/>
   <path stroke="null" id="svg_10" d="m53494.75804,8692.26647l-10.803,19.704l5.986,0l10.803,-19.704l-5.986,0z" opacity="0.5"/>
   <path stroke="null" id="svg_11" d="m53502.12604,8692.26647l-10.802,19.704l5.986,0l10.802,-19.704l-5.986,0z" opacity="0.15"/>
  </g>
 </g>
</svg>